Coordinates
version=1
nRows=6
nColumns=60
inDegrees=yes

Units are S.I. units (second, meters, Newtons, ...)
If the header above contains a line with 'inDegrees', this indicates whether rotational values are in degrees (yes) or radians (no).

endheader
time	pelvis_tilt	pelvis_list	pelvis_rotation	pelvis_tx	pelvis_ty	pelvis_tz	hip_flexion_r	hip_adduction_r	hip_rotation_r	knee_angle_r_beta	knee_angle_r	ankle_angle_r	subtalar_angle_r	mtp_angle_r	hip_flexion_l	hip_adduction_l	hip_rotation_l	knee_angle_l_beta	knee_angle_l	ankle_angle_l	subtalar_angle_l	mtp_angle_l	L5_S1_Flex_Ext	L5_S1_Lat_Bending	L5_S1_axial_rotation	L4_L5_Flex_Ext	L4_L5_Lat_Bending	L4_L5_axial_rotation	L3_L4_Flex_Ext	L3_L4_Lat_Bending	L3_L4_axial_rotation	L2_L3_Flex_Ext	L2_L3_Lat_Bending	L2_L3_axial_rotation	L1_L2_Flex_Ext	L1_L2_Lat_Bending	L1_L2_axial_rotation	L1_T12_Flex_Ext	L1_T12_Lat_Bending	L1_T12_axial_rotation	Abs_r3	Abs_r2	Abs_r1	Abs_t1	Abs_t2	arm_flex_r	arm_add_r	arm_rot_r	elbow_flex_r	pro_sup_r	wrist_flex_r	wrist_dev_r	arm_flex_l	arm_add_l	arm_rot_l	elbow_flex_l	pro_sup_l	wrist_flex_l	wrist_dev_l
      2.75000000	      0.52358898	      5.88523514	     91.75269611	      0.39284819	      0.94394229	      0.29797549	      4.80684981	     -4.58340004	      0.22360665	      0.26395628	    -15.12358101	      4.84234503	      0.00000000	      0.00000000	      3.98134976	     -5.27206635	     -0.67392557	      0.21447410	    -12.28846056	      6.48943832	      0.00000000	      0.00000000	     -6.42065916	      0.11292989	     -0.13839201	    -11.92380613	      0.15019675	     -0.14704151	    -10.54850094	      0.27457773	     -0.14704151	     -7.33817135	      0.27457773	     -0.12109301	     -5.96222410	      0.23028663	     -0.11244351	     -3.66876464	      0.17492840	     -0.10379401	    -45.86212632	      1.27748548	     -0.76969485	      0.00000000	      0.00000000	     70.88065813	    -23.40577013	     25.97769272	     51.63691682	     53.00653945	      3.47693408	     22.24098607	     76.94608159	    -20.53420365	     40.30343011	     42.45474551	     44.79173380	      8.66730208	     12.78993639
      2.76000000	      0.54611313	      5.56691058	     91.70834558	      0.39262822	      0.94362692	      0.29901078	      5.15952452	     -4.58628193	      0.26711847	      0.26089316	    -14.94807683	      4.69957928	      0.00000000	      0.00000000	      4.32068576	     -5.26079269	     -0.63452412	      0.21215945	    -12.15584111	      6.41447360	      0.00000000	      0.00000000	     -6.44116864	      0.10961288	     -0.13875925	    -11.96189428	      0.14578514	     -0.14743170	    -10.58219596	      0.26651277	     -0.14743170	     -7.36161164	      0.26651277	     -0.12141435	     -5.98126920	      0.22352259	     -0.11274189	     -3.68048376	      0.16979036	     -0.10406944	    -46.00862346	      1.23996286	     -0.77173733	      0.00000000	      0.00000000	     72.17932502	    -23.12526461	     26.57816485	     50.32626902	     53.60850912	      3.52546761	     22.18067467	     78.01416847	    -20.34514326	     41.08156067	     41.59081643	     45.13712213	      8.62503931	     12.74810951
      2.77000000	      0.58872620	      5.29157123	     91.65461379	      0.39243441	      0.94339645	      0.29971293	      5.41512969	     -4.55498851	      0.30201555	      0.25722280	    -14.73778068	      4.47969891	      0.00000000	      0.00000000	      4.58075383	     -5.27528175	     -0.56937567	      0.20977130	    -12.01900999	      6.29063870	      0.00000000	      0.00000000	     -6.44525039	      0.10702870	     -0.13311539	    -11.96947449	      0.14234817	     -0.14143510	    -10.58890186	      0.26022959	     -0.14143510	     -7.36627667	      0.26022959	     -0.11647597	     -5.98505951	      0.21825293	     -0.10815625	     -3.68281607	      0.16578746	     -0.09983654	    -46.03777899	      1.21073009	     -0.74034786	      0.00000000	      0.00000000	     73.41488077	    -22.70600585	     27.28877517	     48.47079634	     53.48407439	      3.79842148	     21.98291534	     78.88198183	    -19.83575803	     41.39288447	     40.24137010	     44.81389359	      8.66537398	     12.60764695
      2.78000000	      0.62432536	      5.02089733	     91.63887658	      0.39215929	      0.94320475	      0.30048933	      5.68794564	     -4.54205403	      0.40606652	      0.25469677	    -14.59304987	      4.28943092	      0.00000000	      0.00000000	      4.85528590	     -5.27852839	     -0.55013453	      0.20728293	    -11.87643713	      6.18146926	      0.00000000	      0.00000000	     -6.46962778	      0.11224576	     -0.14711713	    -12.01474575	      0.14928686	     -0.15631195	    -10.62895148	      0.27291433	     -0.15631195	     -7.39413759	      0.27291433	     -0.12872749	     -6.00769636	      0.22889155	     -0.11953267	     -3.69674531	      0.17386868	     -0.11033785	    -46.21190428	      1.26974645	     -0.81822134	      0.00000000	      0.00000000	     74.55574275	    -22.41532869	     27.96251248	     47.53281908	     53.64565459	      4.00241083	     21.81147667	     79.73910358	    -19.75648260	     42.01890637	     39.55961472	     44.86833279	      8.70493644	     12.50039424
      2.79000000	      0.63671893	      4.74428204	     91.60782560	      0.39191774	      0.94302716	      0.30101369	      5.95617258	     -4.55618990	      0.32108596	      0.25201702	    -14.43951166	      4.30218834	      0.00000000	      0.00000000	      5.11871325	     -5.25902451	     -0.59215745	      0.20505979	    -11.74906078	      6.19338394	      0.00000000	      0.00000000	     -6.49572529	      0.10880733	     -0.13283284	    -12.06321143	      0.14471374	     -0.14113489	    -10.67182707	      0.26455413	     -0.14113489	     -7.42396443	      0.26455413	     -0.11622873	     -6.03193050	      0.22187990	     -0.10792668	     -3.71165743	      0.16854255	     -0.09962463	    -46.39831614	      1.23085024	     -0.73877639	      0.00000000	      0.00000000	     75.43522580	    -22.40774246	     28.39053468	     46.84014283	     54.16592219	      4.02009779	     21.76902432	     80.49942561	    -19.68906781	     42.72518088	     39.48098004	     45.24167644	      8.70352096	     12.47100475
      2.80000000	      0.72548240	      4.53525729	     91.56877375	      0.39166585	      0.94295345	      0.30148955	      6.05830354	     -4.48533384	      0.36411555	      0.24604699	    -14.09745412	      3.95567850	      0.00000000	      0.00000000	      5.27424010	     -5.32897193	     -0.53985398	      0.20167605	    -11.55518667	      6.00426314	      0.00000000	      0.00000000	     -6.50543370	      0.11599700	     -0.13766105	    -12.08124092	      0.15427602	     -0.14626487	    -10.68777702	      0.28203511	     -0.14626487	     -7.43506017	      0.28203511	     -0.12045342	     -6.04094573	      0.23654109	     -0.11184961	     -3.71720482	      0.17967936	     -0.10324579	    -46.46766237	      1.31218131	     -0.76562948	      0.00000000	      0.00000000	     76.85839621	    -22.15842356	     30.26447407	     44.85041822	     50.03063222	      6.49634498	     19.29136362	     81.26093096	    -19.36589586	     43.29917589	     38.30079323	     42.94634524	      9.29646805	     11.19329066
